<svg width="84" height="57" viewBox="0 0 84 57" fill="none" xmlns="http://www.w3.org/2000/svg">
<path d="M34.7656 9.59766H27.3438L21.875 18.1914L17.1875 9.59766H0L21.875 47L43.75 9.59766H34.7656ZM5.37109 12.7227H10.6445L21.875 32.0586L33.0078 12.7227H38.2812L21.875 40.8477L5.37109 12.7227Z" fill="black"/>
<path d="M46.481 21.203C47.449 21.203 48.307 21.357 49.055 21.665C49.825 21.951 50.474 22.358 51.002 22.886C51.552 23.414 51.97 24.052 52.256 24.8C52.542 25.548 52.685 26.395 52.685 27.341V31.862C52.685 32.786 52.542 33.633 52.256 34.403C51.97 35.151 51.552 35.8 51.002 36.35C50.474 36.878 49.825 37.285 49.055 37.571C48.307 37.857 47.449 38 46.481 38H45.128C44.182 38 43.324 37.857 42.554 37.571C41.784 37.285 41.124 36.878 40.574 36.35C40.046 35.8 39.639 35.151 39.353 34.403C39.089 33.633 38.957 32.786 38.957 31.862V27.341C38.957 26.395 39.089 25.548 39.353 24.8C39.639 24.052 40.046 23.414 40.574 22.886C41.124 22.358 41.784 21.951 42.554 21.665C43.324 21.357 44.182 21.203 45.128 21.203H46.481ZM45.128 24.998C44.446 24.998 43.863 25.229 43.379 25.691C42.917 26.131 42.686 26.714 42.686 27.44V31.73C42.686 32.456 42.917 33.05 43.379 33.512C43.863 33.974 44.446 34.205 45.128 34.205H46.481C47.185 34.205 47.757 33.974 48.197 33.512C48.659 33.05 48.89 32.456 48.89 31.73V27.44C48.89 26.714 48.659 26.131 48.197 25.691C47.757 25.229 47.185 24.998 46.481 24.998H45.128ZM66.8283 24.8L59.1393 34.205H66.8283V38H54.5523V34.403L62.2083 24.998H54.5523V21.203H66.8283V24.8ZM76.1617 21.203C77.1297 21.203 77.9877 21.357 78.7357 21.665C79.5057 21.951 80.1547 22.358 80.6827 22.886C81.2327 23.414 81.6507 24.052 81.9367 24.8C82.2227 25.548 82.3657 26.395 82.3657 27.341V31.862C82.3657 32.786 82.2227 33.633 81.9367 34.403C81.6507 35.151 81.2327 35.8 80.6827 36.35C80.1547 36.878 79.5057 37.285 78.7357 37.571C77.9877 37.857 77.1297 38 76.1617 38H74.8087C73.8627 38 73.0047 37.857 72.2347 37.571C71.4647 37.285 70.8047 36.878 70.2547 36.35C69.7267 35.8 69.3197 35.151 69.0337 34.403C68.7697 33.633 68.6377 32.786 68.6377 31.862V27.341C68.6377 26.395 68.7697 25.548 69.0337 24.8C69.3197 24.052 69.7267 23.414 70.2547 22.886C70.8047 22.358 71.4647 21.951 72.2347 21.665C73.0047 21.357 73.8627 21.203 74.8087 21.203H76.1617ZM74.8087 24.998C74.1267 24.998 73.5437 25.229 73.0597 25.691C72.5977 26.131 72.3667 26.714 72.3667 27.44V31.73C72.3667 32.456 72.5977 33.05 73.0597 33.512C73.5437 33.974 74.1267 34.205 74.8087 34.205H76.1617C76.8657 34.205 77.4377 33.974 77.8777 33.512C78.3397 33.05 78.5707 32.456 78.5707 31.73V27.44C78.5707 26.714 78.3397 26.131 77.8777 25.691C77.4377 25.229 76.8657 24.998 76.1617 24.998H74.8087Z" fill="black"/>
</svg>
